PathFileType	4	(X/Y/Z)	/Users/niels/Desktop/University/Third Semester/Perception and Action/Exam/Gymnastics Motion Tracking/Code for Gym Tracking/Analyzed Data/Backflip/id1_3_pettlep_Sports2D/id1_3_pettlep_Sports2D_px_person00.trc
DataRate	CameraRate	NumFrames	NumMarkers	Units	OrigDataRate	OrigDataStartFrame	OrigNumFrames
59.90876837303599	59.90876837303599	7	22	m	59.90876837303599	148	198
Frame#	Time	Hip			RHip			RKnee			RAnkle			RBigToe			RSmallToe			RHeel			LHip			LKnee			LAnkle			LBigToe			LSmallToe			LHeel			Neck			Head			Nose			RShoulder			RElbow			RWrist			LShoulder			LElbow			LWrist		
		X1	Y1	Z1	X2	Y2	Z2	X3	Y3	Z3	X4	Y4	Z4	X5	Y5	Z5	X6	Y6	Z6	X7	Y7	Z7	X8	Y8	Z8	X9	Y9	Z9	X10	Y10	Z10	X11	Y11	Z11	X12	Y12	Z12	X13	Y13	Z13	X14	Y14	Z14	X15	Y15	Z15	X16	Y16	Z16	X17	Y17	Z17	X18	Y18	Z18	X19	Y19	Z19	X20	Y20	Z20	X21	Y21	Z21	X22	Y22	Z22
148	2.4704230118443316	1.0527110466334733	-0.33855814045540494	0.0	1.0541853852508638	-0.33760318606090006	0.0	0.9944335223888758	-0.2764360003598944	0.0	1.0574491903012535	-0.2361674796297747	0.0	1.0559527330975744	-0.19859404686367318	0.0	1.0622879269065013	-0.2056899872432647	0.0	1.0673009104273585	-0.23652412897177835	0.0	1.052220966276589	-0.3323024275002089	0.0	0.9956107046960263	-0.27833609952664135	0.0	1.0553097661417417	-0.234595543575601	0.0	1.061222239708901	-0.19575494440759592	0.0	1.0627431010096484	-0.19783121355988562	0.0	1.068170603336259	-0.2300397702030358	0.0	0.9536312194925447	-0.3601509411614523	0.0	0.9104210081936683	-0.3506094054930133	0.0	0.9351955792396465	-0.34055368416565857	0.0	0.9599128223688378	-0.354909338668547	0.0	0.9868892286378593	-0.2935134388765042	0.0	0.9776947152468445	-0.2629522223919063	0.0	0.959640407077193	-0.3614541234920085	0.0	0.9809563778484467	-0.29912433895813745	0.0	0.9757857987493106	-0.26488959943372986	0.0
149	2.487115059221658	1.0521422150086093	-0.32826177456009714	0.0	1.0535993056260446	-0.3270967014205715	0.0	0.9832241425594179	-0.2802810311530717	0.0	1.0372587995921476	-0.2306059916241446	0.0	1.0297795123144093	-0.19443691523271298	0.0	1.0364576955947375	-0.20112273100989464	0.0	1.0459742212653944	-0.2292608572445089	0.0	1.0510435516244705	-0.3225572352061316	0.0	0.984507406932838	-0.2819414511764636	0.0	1.0347327820881684	-0.2295159725432233	0.0	1.0339777721014123	-0.190845896138485	0.0	1.036174826313602	-0.1926588834677145	0.0	1.0469056529215222	-0.2220136998651363	0.0	0.9592565171146101	-0.3677838866294289	0.0	0.915704376302772	-0.3686837394752398	0.0	0.9363101102103203	-0.35350621502865653	0.0	0.9656603949600839	-0.3612903194886721	0.0	0.9886556272555609	-0.29749380795040614	0.0	0.9757573584629414	-0.2714365123971046	0.0	0.9657600551657879	-0.3681954628346754	0.0	0.9811085124438284	-0.30398838565818675	0.0	0.9733938803878046	-0.2746618957564759	0.0
150	2.5038071065989844	1.050490900420878	-0.31827436756175187	0.0	1.051752657334758	-0.3171008622274505	0.0	0.9730151006587243	-0.2861089671476104	0.0	1.016611025092099	-0.22882705425174377	0.0	1.0035088672856756	-0.1957910971613158	0.0	1.0102617090291421	-0.20188268382163022	0.0	1.0239142791184241	-0.22587701018021705	0.0	1.0488579264479463	-0.31323661868817204	0.0	0.974465277461018	-0.28737863163804944	0.0	1.0136820334990355	-0.22810212405195993	0.0	1.0063183180593065	-0.1912516418585854	0.0	1.0091642468202138	-0.1926738650977998	0.0	1.024697810775825	-0.21794037897639343	0.0	0.9661055135093619	-0.3752433109655386	0.0	0.9240335995624146	-0.38653974622158466	0.0	0.939733747670786	-0.36699202307273254	0.0	0.9721510134598819	-0.3675699439576707	0.0	0.9898137678631457	-0.30154164568362557	0.0	0.973200510026253	-0.28036405578465384	0.0	0.9730437720664864	-0.37461432400221756	0.0	0.9807790891193129	-0.3088184671113313	0.0	0.9704434558949614	-0.28476162450170855	0.0
151	2.5204991539763113	1.0477527360315646	-0.3090197307372911	0.0	1.0486342491978624	-0.30804574806436824	0.0	0.9639595839113845	-0.2936271017281312	0.0	0.9958983208557766	-0.23080093469588914	0.0	0.9777335011802907	-0.20254056008360058	0.0	0.9842916827411392	-0.2078094394266682	0.0	1.0015764057661483	-0.2263658370265765	0.0	1.0456701103609214	-0.304733457348964	0.0	0.9656890803510527	-0.2943791630536059	0.0	0.9925893754778892	-0.2302993621480169	0.0	0.97897629672122	-0.1968848538486937	0.0	0.9824197425216786	-0.1977861001747379	0.0	1.0020413775094748	-0.21784963439806768	0.0	0.9741339927115958	-0.3822277930030532	0.0	0.93536383547278	-0.403488958629596	0.0	0.9456292765664738	-0.3805437276535498	0.0	0.9793214071874288	-0.3734876602784351	0.0	0.9903515423476772	-0.30570655150204346	0.0	0.9701298567452646	-0.28971195499765945	0.0	0.9813685028707076	-0.3804626141409037	0.0	0.9801701692137205	-0.3136876699487837	0.0	0.9671230214708529	-0.2951234697099193	0.0
152	2.5371912013536377	1.0439939981611877	-0.3008903216096436	0.0	1.0443310348205186	-0.30029276343144246	0.0	0.9561740776386947	-0.30249978134218836	0.0	0.9754935560982262	-0.23641929317493943	0.0	0.9530021525179964	-0.21437674392222072	0.0	0.9591077390981524	-0.21854718110979193	0.0	0.9793942578935111	-0.23062949440171202	0.0	1.0415549761264442	-0.2974284609060581	0.0	0.9583357863598013	-0.3026478763886681	0.0	0.9718708536790548	-0.23600625378596615	0.0	0.9526624262842622	-0.20751909906100408	0.0	0.9566334559404586	-0.207791501158443	0.0	0.97942084658992	-0.22171001748436647	0.0	0.9832151828842948	-0.38847783634484845	0.0	0.9494596011923725	-0.41889764126185747	0.0	0.9539783895680102	-0.3936852389907982	0.0	0.9870819000150585	-0.37880410152713095	0.0	0.9903010497014382	-0.3100948774124779	0.0	0.9666494536682141	-0.2994799291631007	0.0	0.9905323375109736	-0.38554417827916576	0.0	0.9795781798611995	-0.3187504237857229	0.0	0.9636204350447247	-0.30572175700764026	0.0
153	2.553883248730964	1.0393302490929055	-0.29421049017945206	0.0	1.0389930682202175	-0.2941022919408206	0.0	0.94970902247	-0.31237988038459646	0.0	0.9557527397129412	-0.245511137022291	0.0	0.9298128552209982	-0.23082473884918936	0.0	0.9352232828901913	-0.23359643922317813	0.0	0.9577781813800866	-0.2385077056274603	0.0	1.0366420776962038	-0.29165587610599386	0.0	0.9524783971888937	-0.31191999701243817	0.0	0.9519325121229859	-0.24509587531151222	0.0	0.928053058902131	-0.22282945115312527	0.0	0.932466861377138	-0.2223982336911029	0.0	0.9573216761667733	-0.22944501888295138	0.0	0.9931408815107835	-0.3938002426666262	0.0	0.9659027849292653	-0.4322405390487823	0.0	0.9645719400962386	-0.40596796249263223	0.0	0.9953102232514421	-0.38333085647759685	0.0	0.9897443814783438	-0.31484791118308864	0.0	0.9628770673648301	-0.3096968040094115	0.0	1.0002679158654402	-0.38973344173286323	0.0	0.9793156078345862	-0.32419959294178324	0.0	0.9601406772615295	-0.31657497269995	0.0
154	2.570575296108291	1.0339099462944497	-0.2892189138666191	0.0	1.032806576905896	-0.2896325873179605	0.0	0.9445434012856575	-0.3229484699678896	0.0	0.9370237572148861	-0.2578590451868765	0.0	0.9086222787529725	-0.2512874729259009	0.0	0.9131150252757293	-0.252397365755933	0.0	0.9371175188147961	-0.24981798267106467	0.0	1.0311128961277878	-0.2876679587740988	0.0	0.9481018873770234	-0.3219968797331606	0.0	0.9331790644175388	-0.2574172430596986	0.0	0.9057787812639806	-0.24241041150069279	0.0	0.9105388465846063	-0.24123106158697674	0.0	0.9362340977730651	-0.2409341550731205	0.0	1.003646091678445	-0.39808200689371837	0.0	0.9841275730390567	-0.44314342521521993	0.0	0.977038430385783	-0.4170046130624522	0.0	1.0038466229684595	-0.3869484324389762	0.0	0.9888151817678172	-0.3201125187887017	0.0	0.9589831726833115	-0.3204238738286028	0.0	1.0102781497980629	-0.3929848777487002	0.0	0.9796062796958706	-0.3302360916670914	0.0	0.9569371372002032	-0.3277490245060103	0.0
